<svg id="Layer_1" data-name="Layer 1" xmlns="http://www.w3.org/2000/svg" viewBox="0 0 242 308"><defs><style>.cls-1{fill:#fefefe;}.cls-2{fill:#e2b161;}.cls-3{fill:#e5e5e5;}.cls-4{fill:#d8d8d8;}.cls-5{fill:#d7d7d7;}.cls-6{fill:#d9d9d9;}.cls-7{fill:#dcdcdc;}.cls-8{fill:#e0a94f;}.cls-9{fill:#dba140;}.cls-10{fill:#ddd;}.cls-11{fill:#dedede;}.cls-12{fill:#dfdfdf;}.cls-13{fill:#e1e1e1;}.cls-14{fill:#e3e3e3;}.cls-15{fill:#e4e4e4;}.cls-16{fill:#edd8c2;}.cls-17{fill:#a4a4a4;}.cls-18{fill:#d6d6d6;}.cls-19{fill:#a5a5a5;}.cls-20{fill:#363636;}.cls-21{fill:#bcbcbc;}.cls-22{fill:#b9b8b8;}.cls-23{fill:#b9b9b9;}.cls-24{fill:#b5b4b4;}.cls-25{fill:#a78347;}.cls-26{fill:#393838;}</style></defs><path class="cls-1" d="M69.18,204q0-75.21-.08-150.42c0-3,.6-3.58,3.58-3.58q117.42.15,234.84,0c3,0,3.58.6,3.58,3.58Q311,204,311.1,354.42c0,3-.6,3.58-3.58,3.58q-117.42-.15-234.84,0c-3,0-3.59-.6-3.58-3.58Q69.26,279.21,69.18,204Z" transform="translate(-69.1 -50)"/><path class="cls-2" d="M130.29,191.86c-.73-7.29,1-14.7-1-21.94-1-5.61-.54-11.27-.6-16.91.24-4.46.11-8.94.14-13.41,0-2.24-.35-4.32-2.36-5.71-6.82-4.7-13.78-9.2-20.58-13.92a4.37,4.37,0,0,0-2.84-.75c-4.75-13.61-7.21-27.8-11.45-42.86,10.68,5.32,19.92,10.61,29.7,14.58,7.62,3.09,10.61,7.34,9.73,15.65s-.19,16.55-.19,26.3c39.23-25.3,78-25.41,117.28-.22,0-10.89.3-20.5-.13-30.07-.21-4.76,1.52-7,5.67-9,9.62-4.55,19-9.65,28.46-14.5,1.43-.72,2.91-1.33,5.55-2.54-4.25,14.94-6.85,29.09-11.51,42.73-3.24.16-5.28,2.63-7.83,4.11-1.73,1-3.36,2.18-5,3.32C250,136.09,250,136.09,250.47,153c-.19,5.66.65,11.35-.53,17-2,7.25-.24,14.67-1,22-.35,3.88-2.75,6.93-4.16,10.38-.88,1.43-1.29,3.23-3.06,4-3.05-.61-3.33-3.4-4.34-5.58-4.26-9.17-10.91-15.46-21.18-17-7.58-1.12-14.58,1.12-20.72,5.4-4.15,2.9-7.36,2.82-11.67.08C166,177.85,149,183.43,141,202.86c-.56,1.36-.87,2.9-2.48,3.54-1.91.13-2.54-1.35-3.34-2.63C133.47,199.84,130.84,196.27,130.29,191.86Z" transform="translate(-69.1 -50)"/><path class="cls-3" d="M227.09,311c.85,5-2.43,7.13-6.2,9.06-9.46,4.82-18.87,9.75-28.29,14.65-1.65.86-3.16,1.51-5.12.45-9.91-5.37-19.79-10.82-29.91-15.79-3.82-1.87-6.08-4-5.47-8.37.22-5.58,2-10.9,2.66-16.41,1.28-7.25,3.14-14.4,3.93-21.74,3.4-16.36,5.65-32.94,9.33-49.24.78-3.15,2.92-5,5.75-6.37,19.72-9.51,12.72-9,33,.73a8.05,8.05,0,0,1,4.34,4.55c3.93,18.32,6.78,36.84,10.41,55.22.89,9.6,3.48,18.89,5.28,28.33A22.8,22.8,0,0,1,227.09,311Z" transform="translate(-69.1 -50)"/><path class="cls-3" d="M151.1,310c-6.17-3.17-11.36-7.76-17-11.65-1.53-1-1.68-2.39-1.21-4.3.55-2.25,2.12-4.67.28-7.09,2.58-9.09,5.5-18.08,7.58-27.3,1.29-6.15,3.16-12.14,4.91-18.17,1.13-4.17,1.56-8.63,4.74-12a3,3,0,0,1,2.57.22c1.95,1.85,1.75,4.24,1.46,6.53-1.07,8.6-.83,17.23-.81,25.86,0,14.44-1.73,28.83-1,43.29A5.9,5.9,0,0,1,151.1,310Z" transform="translate(-69.1 -50)"/><path class="cls-3" d="M246,287.86c-.17.95-.79,2.12-.44,2.81,2.82,5.64-.46,8.41-4.77,10.91s-7.93,6.36-12.65,8.41c-1.59-2.14-1.57-4.66-1.5-7.12.58-20-1.72-40-1.08-60.08a39.31,39.31,0,0,0-.52-6.93c-.3-2.14-.61-4.32,1.13-6.09a3,3,0,0,1,2.54-.34c3.7,2.83,3.22,7.43,4.72,11.19,1.94,7.34,3.78,14.7,5.74,22C241.06,271.15,244.53,279.23,246,287.86Z" transform="translate(-69.1 -50)"/><path class="cls-4" d="M142.1,259.91c-2.31,8.25-4.66,16.48-6.89,24.74-.34,1.24-.61,2.21-2.07,2.3-.67-1.65-1.35-3.29-2-4.94-1.7-4.86-.57-9.82-.67-14.76-.31-15.14,1.63-30.2,1.13-45.33-.17-5.18.91-10.26,1.23-15.4.11-1.7-.05-4.43,3.26-3.52l2.06,3.07c3.09,3.44,5.38,7.26,5.53,12.06a377.16,377.16,0,0,1-2,39.91A2.68,2.68,0,0,0,142.1,259.91Z" transform="translate(-69.1 -50)"/><path class="cls-5" d="M246,287.86c-4.06-7.87-5.77-16.47-7.88-25-2.43-14.85-.82-29.94-2.56-44.83a16.34,16.34,0,0,1,6.44-12.3,6.75,6.75,0,0,1,2-3.94c2.38,1.87,2.5,4.59,2.57,7.23.54,21.87,2,43.71,2.09,65.59,0,2.47.26,5-.54,7.38Z" transform="translate(-69.1 -50)"/><path class="cls-6" d="M227.08,230c-1.54,1.31-1.19,3.11-.85,4.64,1.62,7.37,1,14.84.78,22.23-.36,11.14,1.53,22.16,1.14,33.28-.23,6.62,0,13.24,0,19.86l-1,1c-3.58-10.78-5.51-21.9-7-33.12.52-6.27-.74-12.43-1.11-18.64-.64-10.72-1-21.43.14-32.14C222.47,225.05,224.77,225.89,227.08,230Z" transform="translate(-69.1 -50)"/><path class="cls-7" d="M136.06,203c-1.41.19-1.85,1.08-1.93,2.42-.29,5.6-1,11.21-.92,16.8.3,15.41-1.49,30.76-1.28,46.18a71,71,0,0,1-.82,13.61,45.6,45.6,0,0,1-6-12c.28-19.6,1.52-39.18,1.7-58.8,0-3.39,1.23-6.77,1.33-10.23-.29-3.28,1.48-6.07,2.16-9.12Z" transform="translate(-69.1 -50)"/><path class="cls-7" d="M248.1,282A23.8,23.8,0,0,1,247,274.2c.53-15.26-.83-30.49-1.31-45.71-.29-8.83.56-17.9-1.74-26.66a37.87,37.87,0,0,1,5-9.91,22.15,22.15,0,0,1,2.13,9c1.15,7.87,1,15.86,1.22,23.74.43,15.4,1.33,30.78,1.73,46.18C251.32,274.21,251.19,278.91,248.1,282Z" transform="translate(-69.1 -50)"/><path class="cls-8" d="M103.07,119.22c.27-1.74.91-2.35,2.61-1.17,7.6,5.27,15.23,10.52,22.9,15.67,1.75,1.17,1.55,2.76,1.55,4.39q0,7,0,13.93c-2.33.83-3.67-.9-5.18-2.07-4.17-3.24-8.37-6.44-12.5-9.73-1.28-1-2.48-2.24-4.33-2.11A93.74,93.74,0,0,1,103.07,119.22Z" transform="translate(-69.1 -50)"/><path class="cls-8" d="M249.08,152c-2.77-12.84,2.62-21.27,14-26.77,3.53-1.71,6.57-4.43,9.9-6.58,1.08-.7,2.62-2.26,3.15.61-1,5.36-2,10.72-4.18,15.75-5.47,6.67-13.09,10.79-19.42,16.45C251.62,152.36,250.44,153.14,249.08,152Z" transform="translate(-69.1 -50)"/><path class="cls-9" d="M249.08,152c6.65-3.41,11.54-9.17,17.69-13.26,1.78-1.18,3.49-2.48,5.23-3.73-1.24,5.16-2.56,10.31-3.68,15.49a8.7,8.7,0,0,1-3,4.47L249.94,170C248,164.06,249.57,158,249.08,152Z" transform="translate(-69.1 -50)"/><path class="cls-9" d="M108.11,138.13c.76-3.38,2.1-1.26,3.29-.34,6.19,4.82,12,10.09,18.72,14.25-.46,6,1.07,12-.81,17.88-3.35-3.2-6.43-6.76-10.1-9.52C111.68,154.75,109.22,146.84,108.11,138.13Z" transform="translate(-69.1 -50)"/><path class="cls-10" d="M151.1,310c0-6.1.29-12.22-.06-18.31-.65-11.44,1.59-22.75.83-34.29-.45-6.69-.79-13.89,1-20.77.55-2.06,1.06-4.63-.79-6.64.74-2.83,2.29-3.32,4.61-1.6,1.81,5,1.19,10.21,1.2,15.24,0,6.91-.1,13.88-.76,20.82-1,10.13-.21,20.35-1,30.5-1.32,5.35-1.05,11.09-4,16Z" transform="translate(-69.1 -50)"/><path class="cls-11" d="M254,270.88c-.93-1.54-2.12-2.88-2-4.94.66-11.13-1.62-22.17-1-33.31.29-5.14-.47-10.23-.89-15.34a49.87,49.87,0,0,1,.91-16.33c2.5,4.69,3.26,9.84,4,15,2.84,16.25,3.1,32.61,2,49A10.57,10.57,0,0,1,254,270.88Z" transform="translate(-69.1 -50)"/><path class="cls-12" d="M128.13,201c2,3.89,0,7.79,0,11.69-.24,16.58-.65,33.15-.94,49.73A19.6,19.6,0,0,1,125.1,270a12,12,0,0,1-3-6c-1.17-7.43-.69-14.92-.33-22.35.41-8.58.49-17.24,2.35-25.71A59.89,59.89,0,0,1,128.13,201Z" transform="translate(-69.1 -50)"/><path class="cls-13" d="M124.13,216c.58,14.27-1.66,28.46-1,42.73.08,1.76-.62,3.55-1,5.33-1.94-2-2.63-4.71-4-7.06-1.18-3.94-.24-7.83.3-11.73.53-3.73-.09-7.54.69-11.25A84.68,84.68,0,0,1,124.13,216Z" transform="translate(-69.1 -50)"/><path class="cls-13" d="M257.05,265c-1.24-4.87-.91-9.84-1-14.79-.25-11.41-.63-22.81-1-34.22a71,71,0,0,1,5,18c1,7.65-.09,15.37,1,23C258.6,259.08,259.61,262.92,257.05,265Z" transform="translate(-69.1 -50)"/><path class="cls-14" d="M261.05,257c-3.94-6.26-1.52-13.05-1.59-19.63a17.39,17.39,0,0,1,.6-3.38c1.5,5,3.29,10,4.4,15.12C265.13,252.16,262.8,254.59,261.05,257Z" transform="translate(-69.1 -50)"/><path class="cls-15" d="M119.14,234c2.22,7.77.28,15.36-1,23-3.22-3.61-4.27-7.42-2.23-12.19C117.39,241.35,117.31,237.36,119.14,234Z" transform="translate(-69.1 -50)"/><path class="cls-16" d="M156.12,228a5.56,5.56,0,0,0-4,2l-2,0c-1.58-.29-2.35-1.5-3.12-2.72-1.34-3.41-4.24-6.23-3.91-10.28-1.54-3.71-4-7-5-10.94,2.36-4.72,3.85-9.86,7.41-14,9.92-11.46,24.42-13.48,38.2-4.49,4.35,2.84,7.1,3.07,11.62.12,17.49-11.41,36.2-5.11,43.88,14.19.58,1.46.73,3.36,2.74,3.86L236.09,217c.3,4.1-2.65,7-4,10.48-.82,1.08-1.08,2.88-3.08,2.5l-2,0c-2-2-4.7-2.71-7.11-3.94-4,.35-6.72-2.67-10.07-4-5.45-5.09-12.72-6.91-19-10.52-1-.57-2,0-2.83.43-5.54,2.61-11,5.33-16.59,7.92-1.44.67-1.14,2.34-2.19,3.17-3.47-.05-5.74,2.63-8.68,3.8C159.13,227.27,157.75,228.1,156.12,228Z" transform="translate(-69.1 -50)"/><path class="cls-17" d="M209.9,222c4.07-.43,6.67,2.81,10.07,4,0,6.13,0,12.27.14,18.4.24,9.59.67,19.17.92,28.75,0,1.57.65,3.36-.91,4.66q-4.29-23.06-8.58-46.11C210.94,228.5,210.44,225.25,209.9,222Z" transform="translate(-69.1 -50)"/><path class="cls-18" d="M156.12,228a5.5,5.5,0,0,1,4-2c1.84,1.88,1.54,4.29,1.5,6.55-.24,12.33,1.09,24.74-1.92,36.93a4.27,4.27,0,0,0,.33,3.36c-.5,7.52-2.94,14.69-3.95,22.11-1.91-2.17-.94-4.79-.93-7.17.07-14.33.65-28.64,1.47-43C157,239.35,156.34,233.6,156.12,228Z" transform="translate(-69.1 -50)"/><path class="cls-19" d="M160.06,272.83c-1.53-1.32-1.05-3.15-.85-4.66,1.86-14,.47-28.13.94-42.18l7.15-4.05c1.22-.68,1.77-.11,2,1.06-3.07,15.45-5.06,31.11-8.94,46.4A20.53,20.53,0,0,0,160.06,272.83Z" transform="translate(-69.1 -50)"/><path class="cls-20" d="M190,224.47c2.19,1.6,6.93-2.48,6.87,3.61,0,5.08-2.81,8.33-7.22,8.26s-6.66-3.08-6.76-8.05C182.77,221.84,187.74,226.1,190,224.47Z" transform="translate(-69.1 -50)"/><path class="cls-21" d="M143.12,217l5,10a22.42,22.42,0,0,1-1,9.65c-.59,1.68-1,3.49-.14,5.27-1.86,5.94-3.9,11.83-4.92,18-2.21-6.58-1.22-13.42-.72-20s.57-13.16.75-19.74C142.16,219,142,217.83,143.12,217Z" transform="translate(-69.1 -50)"/><path class="cls-22" d="M147,241.91c-2.11-5.15,0-10,1.09-14.92l2,3C149.65,234.12,147.14,237.7,147,241.91Z" transform="translate(-69.1 -50)"/><path class="cls-23" d="M231.11,227l5-10c1.78,3.82,1.49,8,1.8,12,.79,9.87-.55,19.84,1.12,29.72.23,1.37.51,3-.92,4.15q-3-11-6-22C233,236.2,230.14,231.75,231.11,227Z" transform="translate(-69.1 -50)"/><path class="cls-24" d="M231.11,227c1.18,4.58,3.22,9.1,1,13.93q-1.54-5.48-3.08-10.94Z" transform="translate(-69.1 -50)"/><path class="cls-25" d="M154.17,196.11c0-9.1,0-9.1,9-9.1,3.49,0,7,0,10.47,0,2.28,0,4,1,4.33,3.26.64,5.15,0,10-4.44,13.51-3.86,3.06-13.06,4.2-16.62,2C153,203.29,154.52,199.23,154.17,196.11Z" transform="translate(-69.1 -50)"/><path class="cls-26" d="M215.05,202.21c-3.58-.11-5.64-2.19-5.6-5.6a5.15,5.15,0,0,1,5.48-5.32c3.48,0,5.68,2.14,5.61,5.65C220.48,200.17,218.48,202.06,215.05,202.21Z" transform="translate(-69.1 -50)"/></svg>